<?xml version="1.0" encoding="utf-8"?>
<!-- Generator: Adobe Illustrator 26.2.1, SVG Export Plug-In . SVG Version: 6.00 Build 0)  -->
<svg version="1.1" id="レイヤー_1" xmlns="http://www.w3.org/2000/svg" xmlns:xlink="http://www.w3.org/1999/xlink" x="0px"
	 y="0px" viewBox="0 0 175 58.8" style="enable-background:new 0 0 175 58.8;" xml:space="preserve">
<style type="text/css">
	.st0{fill:#1E94D4;}
	.st1{fill:none;stroke:#FFFFFF;stroke-width:0.7007;stroke-miterlimit:10;}
	.st2{clip-path:url(#SVGID_00000000932666172075567110000000884521453878922422_);}
	.st3{fill:none;stroke:#EDF6FD;stroke-width:0.325;stroke-miterlimit:10;}
</style>
<g>
	<g id="レイヤー_2_1_">
		<g id="レイヤー_1-2">
			<path class="st0" d="M1.8,2.8C1.8,2.4,2.1,2,2.5,2h29c0.4,0,0.7,0.3,0.7,0.6l0,0v10.3c0,0.4-0.3,0.8-0.8,0.8H14.2
				c-0.3,0-0.6,0.2-0.6,0.6c0,0,0,0,0,0.1V18c0,0.3,0.2,0.5,0.6,0.5h7.5c0.3,0,0.6,0.3,0.7,0.6v10.8c0,0.4-0.3,0.7-0.7,0.7l0,0h-7.4
				c-0.3,0-0.6,0.4-0.6,0.8v14.5c0.1,0.4-0.2,0.8-0.6,0.8H13H2.5c-0.4-0.1-0.7-0.4-0.6-0.8V2.8H1.8z M25.2,25.8
				c0-5.5,4.1-9.2,10.2-9.2s10.2,3.7,10.2,9.5v11.2c0,5.5-4.1,9.3-10.2,9.3s-10.3-3.8-10.3-9.3L25.2,25.8z M34.4,35.7
				c0,0.7,0.3,1.2,1,1.2s0.9-0.5,0.9-1.2v-8.5c0-0.6-0.4-1.2-0.9-1.2c-0.6,0-1,0.5-1,1.2V35.7z M48.4,11.3c0-0.3,0.1-0.5,0.4-0.5
				h8.4c0.4,0,0.8,1.9,1,1.9c0.1,0,0.2-0.1,0.4-0.4c0.6-1.4,1.9-1.5,3.7-1.5c0.2,0,0.4,0.2,0.4,0.4v8.6c0,0.2-0.1,0.4-0.3,0.4h-0.1
				c-3,0-4.2,1.6-4.2,6.4v19.3c0,0.3-0.2,0.5-0.5,0.5l0,0H49c-0.2,0-0.4-0.2-0.4-0.4l0,0L48.4,11.3z M64.5,19.1
				c0-4.9,3.6-8.3,8.8-8.3c1.4-0.1,2.9,0.2,4.2,0.9c0.4-0.6,2-2.6,3.3-2.6c1.5,0,3,3.1,3,3.5c0,0.6-2.7,1.5-3,1.9
				c0.9,1.5,1.3,3.2,1.2,4.9v8.8c0,4.9-3.6,8.3-8.7,8.3c-0.8,0-1.6-0.1-2.4-0.3c-0.2,0.3-0.3,0.6-0.4,1c0,0.7,0.8,1.1,3.2,1.5
				c6.4,0.9,9.1,3.2,9.1,8.8c0,5.2-4,7.9-9.1,7.9c-6.7,0-9.6-3.4-9.6-6.8c-0.1-1.7,0.6-3.3,1.9-4.3c-1-1.1-1.6-2.6-1.4-4.1
				c0.2-2.2,1.2-4.3,2.9-5.7c-1.8-1.6-2.9-3.9-3-6.3V19.1z M70.3,45.9c-0.2,0.2-0.4,0.5-0.4,0.8c0,1.6,2.7,1.7,3.2,1.7
				c1,0,2.4-0.2,2.4-1.2c0-0.4-0.3-0.6-0.9-0.6C73.2,46.4,71.7,46.2,70.3,45.9z M72.3,27.1c0,0.8,0.4,1.2,1,1.2s0.9-0.4,0.9-1.2
				v-6.5c0-0.8-0.4-1.2-0.9-1.2s-1,0.4-1,1.1V27.1z M108.1,46.5c-0.3,0-0.5-0.3-0.5-0.6V11.2c0-0.2,0.2-0.4,0.4-0.4l0,0h7.4
				c0.4,0,0.9,2.5,1.1,2.5c0.1,0,0.2-0.1,0.4-0.4c1-1.5,2.8-2.4,4.6-2.2c3.3,0,5.9,2.7,5.8,6c0,0.1,0,0.2,0,0.3v29.2
				c0,0.2-0.1,0.3-0.3,0.3l0,0h-8c-0.2,0-0.4-0.2-0.4-0.4l0,0V21.7c0-0.9-0.5-1.2-0.9-1.2s-1,0.3-1,1.2v24.4c0,0.2-0.1,0.4-0.4,0.4
				H108.1z M130.4,21.1c0-5.2,3.6-10.3,9.9-10.3c6.3,0,10.2,5.5,10.2,10.9c0,2.9,0,3.2-0.7,3.3l-7.8,0.4c-0.4,0-0.7-0.3-0.7-0.6
				c0,0,0,0,0-0.1v-4.3c0.1-0.6-0.4-1.1-0.9-1.2c-0.6,0.1-1,0.6-1,1.2v15.8c0,0.6,0.4,1.1,1,1.2c0.6-0.1,1-0.6,0.9-1.2v-3.8
				c0-0.3,0.2-0.6,0.6-0.6h0.1l7.9,0.4c0.4,0,0.7,0.3,0.7,0.7c0,4.1,0,13.7-10.4,13.7c-5.7,0-9.6-4.5-9.6-11.4L130.4,21.1z
				 M150.6,11.2c0-0.2,0.1-0.4,0.3-0.4h8.2c0.2,0,0.5,0.2,0.5,0.4l1.3,8.9c0.1,0.2,0.1,0.5,0.2,0.5c0.1,0,0.2-0.2,0.2-0.5l1.7-8.9
				c0.1-0.1,0.1-0.3,0.4-0.3h7.9c0.2,0,0.4,0.2,0.3,0.2L163.2,55c0,0.3-0.3,0.5-0.5,0.5H155c-0.2,0-0.4-0.2-0.4-0.4V55l2.7-15
				c0.1-0.3,0.1-0.6,0-0.9L150.6,11.2z M85.3,11.4c0-0.4,0.2-0.6,0.5-0.6h7.5c0.2,0,0.5,0.2,0.5,0.4c0,0,0,0,0,0.1V34
				c0,0.9,0.5,1.2,1,1.2s0.9-0.3,0.9-1.2V11.3c0-0.2,0.1-0.4,0.4-0.5l0,0h7.7c0.3,0,0.5,0.2,0.5,0.4V46c0,0.2-0.2,0.4-0.4,0.4
				c0,0,0,0-0.1,0h-7.1c-0.4,0-0.7-2-1-2c-0.1,0-0.3,0.1-0.6,0.5c-1.1,1.1-2.6,1.7-4.2,1.6c-3.2-0.1-5.7-2.9-5.6-6.1
				c0-0.1,0-0.1,0-0.2C85.3,40.2,85.3,11.4,85.3,11.4z"/>
			<path class="st1" d="M1.8,2.8C1.8,2.4,2.1,2,2.5,2h29c0.4,0,0.7,0.3,0.7,0.6l0,0v10.3c0,0.4-0.3,0.8-0.8,0.8H14.2
				c-0.3,0-0.6,0.2-0.6,0.6c0,0,0,0,0,0.1V18c0,0.3,0.2,0.5,0.6,0.5h7.5c0.3,0,0.6,0.3,0.7,0.6v10.8c0,0.4-0.3,0.7-0.7,0.7l0,0h-7.4
				c-0.3,0-0.6,0.4-0.6,0.8v14.5c0.1,0.4-0.2,0.8-0.6,0.8H13H2.5c-0.4-0.1-0.7-0.4-0.6-0.8V2.8H1.8z M25.2,25.8
				c0-5.5,4.1-9.2,10.2-9.2s10.2,3.7,10.2,9.5v11.2c0,5.5-4.1,9.3-10.2,9.3s-10.3-3.8-10.3-9.3L25.2,25.8z M34.4,35.7
				c0,0.7,0.3,1.2,1,1.2s0.9-0.5,0.9-1.2v-8.5c0-0.6-0.4-1.2-0.9-1.2c-0.6,0-1,0.5-1,1.2V35.7z M48.4,11.3c0-0.3,0.1-0.5,0.4-0.5
				h8.4c0.4,0,0.8,1.9,1,1.9c0.1,0,0.2-0.1,0.4-0.4c0.6-1.4,1.9-1.5,3.7-1.5c0.2,0,0.4,0.2,0.4,0.4v8.6c0,0.2-0.1,0.4-0.3,0.4h-0.1
				c-3,0-4.2,1.6-4.2,6.4v19.3c0,0.3-0.2,0.5-0.5,0.5l0,0H49c-0.2,0-0.4-0.2-0.4-0.4l0,0L48.4,11.3z M64.5,19.1
				c0-4.9,3.6-8.3,8.8-8.3c1.4-0.1,2.9,0.2,4.2,0.9c0.4-0.6,2-2.6,3.3-2.6c1.5,0,3,3.1,3,3.5c0,0.6-2.7,1.5-3,1.9
				c0.9,1.5,1.3,3.2,1.2,4.9v8.8c0,4.9-3.6,8.3-8.7,8.3c-0.8,0-1.6-0.1-2.4-0.3c-0.2,0.3-0.3,0.6-0.4,1c0,0.7,0.8,1.1,3.2,1.5
				c6.4,0.9,9.1,3.2,9.1,8.8c0,5.2-4,7.9-9.1,7.9c-6.7,0-9.6-3.4-9.6-6.8c-0.1-1.7,0.6-3.3,1.9-4.3c-1-1.1-1.6-2.6-1.4-4.1
				c0.2-2.2,1.2-4.3,2.9-5.7c-1.8-1.6-2.9-3.9-3-6.3V19.1z M70.3,45.9c-0.2,0.2-0.4,0.5-0.4,0.8c0,1.6,2.7,1.7,3.2,1.7
				c1,0,2.4-0.2,2.4-1.2c0-0.4-0.3-0.6-0.9-0.6C73.2,46.4,71.7,46.2,70.3,45.9z M72.3,27.1c0,0.8,0.4,1.2,1,1.2s0.9-0.4,0.9-1.2
				v-6.5c0-0.8-0.4-1.2-0.9-1.2s-1,0.4-1,1.1V27.1z M108.1,46.5c-0.3,0-0.5-0.3-0.5-0.6V11.2c0-0.2,0.2-0.4,0.4-0.4l0,0h7.4
				c0.4,0,0.9,2.5,1.1,2.5c0.1,0,0.2-0.1,0.4-0.4c1-1.5,2.8-2.4,4.6-2.2c3.3,0,5.9,2.7,5.8,6c0,0.1,0,0.2,0,0.3v29.2
				c0,0.2-0.1,0.3-0.3,0.3l0,0h-8c-0.2,0-0.4-0.2-0.4-0.4l0,0V21.7c0-0.9-0.5-1.2-0.9-1.2s-1,0.3-1,1.2v24.4c0,0.2-0.1,0.4-0.4,0.4
				H108.1z M130.4,21.1c0-5.2,3.6-10.3,9.9-10.3c6.3,0,10.2,5.5,10.2,10.9c0,2.9,0,3.2-0.7,3.3l-7.8,0.4c-0.4,0-0.7-0.3-0.7-0.6
				c0,0,0,0,0-0.1v-4.3c0.1-0.6-0.4-1.1-0.9-1.2c-0.6,0.1-1,0.6-1,1.2v15.8c0,0.6,0.4,1.1,1,1.2c0.6-0.1,1-0.6,0.9-1.2v-3.8
				c0-0.3,0.2-0.6,0.6-0.6h0.1l7.9,0.4c0.4,0,0.7,0.3,0.7,0.7c0,4.1,0,13.7-10.4,13.7c-5.7,0-9.6-4.5-9.6-11.4L130.4,21.1z
				 M150.6,11.2c0-0.2,0.1-0.4,0.3-0.4h8.2c0.2,0,0.5,0.2,0.5,0.4l1.3,8.9c0.1,0.2,0.1,0.5,0.2,0.5c0.1,0,0.2-0.2,0.2-0.5l1.7-8.9
				c0.1-0.1,0.1-0.3,0.4-0.3h7.9c0.2,0,0.4,0.2,0.3,0.2L163.2,55c0,0.3-0.3,0.5-0.5,0.5H155c-0.2,0-0.4-0.2-0.4-0.4V55l2.7-15
				c0.1-0.3,0.1-0.6,0-0.9L150.6,11.2z M85.3,11.4c0-0.4,0.2-0.6,0.5-0.6h7.5c0.2,0,0.5,0.2,0.5,0.4c0,0,0,0,0,0.1V34
				c0,0.9,0.5,1.2,1,1.2s0.9-0.3,0.9-1.2V11.3c0-0.2,0.1-0.4,0.4-0.5l0,0h7.7c0.3,0,0.5,0.2,0.5,0.4V46c0,0.2-0.2,0.4-0.4,0.4
				c0,0,0,0-0.1,0h-7.1c-0.4,0-0.7-2-1-2c-0.1,0-0.3,0.1-0.6,0.5c-1.1,1.1-2.6,1.7-4.2,1.6c-3.2-0.1-5.7-2.9-5.6-6.1
				c0-0.1,0-0.1,0-0.2C85.3,40.2,85.3,11.4,85.3,11.4z"/>
			<g>
				<g>
					<defs>
						<path id="SVGID_1_" d="M1.8,2.8C1.8,2.4,2.1,2,2.5,2h29c0.4,0,0.7,0.3,0.7,0.6l0,0v10.3c0,0.4-0.3,0.8-0.8,0.8H14.2
							c-0.3,0-0.6,0.2-0.6,0.6c0,0,0,0,0,0.1V18c0,0.3,0.2,0.5,0.6,0.5h7.5c0.3,0,0.6,0.3,0.6,0.6v10.8c0,0.4-0.3,0.7-0.7,0.7l0,0
							h-7.4c-0.3,0-0.6,0.4-0.6,0.8v14.5c0.1,0.4-0.2,0.8-0.6,0.8h-0.1H2.5c-0.4-0.1-0.7-0.4-0.7-0.8V2.8z M25.2,25.8
							c0-5.5,4.1-9.2,10.2-9.2s10.2,3.7,10.2,9.5v11.2c0,5.5-4.1,9.3-10.2,9.3s-10.3-3.8-10.3-9.3L25.2,25.8z M34.4,35.7
							c0,0.7,0.3,1.2,0.9,1.2s1-0.5,1-1.2v-8.5c0-0.6-0.4-1.2-1-1.2s-0.9,0.5-0.9,1.2V35.7z M48.4,11.3c0-0.3,0.1-0.5,0.4-0.5h8.4
							c0.4,0,0.8,1.9,1,1.9c0.1,0,0.2-0.1,0.4-0.4c0.6-1.4,1.9-1.5,3.7-1.5c0.2,0,0.4,0.2,0.4,0.4v8.6c0,0.2-0.1,0.4-0.3,0.4h-0.1
							c-3,0-4.2,1.6-4.2,6.4v19.3c0,0.3-0.2,0.5-0.5,0.5H49c-0.2,0-0.4-0.2-0.4-0.4l0,0L48.4,11.3z M64.5,19.1
							c0-4.9,3.6-8.3,8.8-8.3c1.4-0.1,2.9,0.2,4.2,0.9c0.4-0.7,2-2.6,3.3-2.6c1.5,0,3,3,3,3.4c0,0.6-2.7,1.6-3,1.9
							c0.9,1.5,1.3,3.2,1.2,4.9v8.9c0,4.9-3.6,8.3-8.7,8.3c-0.8,0-1.6-0.1-2.4-0.3c-0.2,0.3-0.3,0.6-0.4,0.9c0,0.7,0.8,1.1,3.2,1.5
							c6.4,0.9,9.1,3.2,9.1,8.8c0,5.2-4,7.9-9.1,7.9c-6.7,0-9.6-3.5-9.6-6.8c-0.1-1.7,0.6-3.3,1.9-4.3c-1-1.1-1.6-2.6-1.4-4.1
							c0.1-2.2,1.2-4.3,2.9-5.7c-1.8-1.6-2.9-3.9-3-6.3V19.1z M70.3,45.9c-0.2,0.2-0.4,0.5-0.4,0.8c0,1.6,2.7,1.7,3.2,1.7
							c1,0,2.4-0.2,2.4-1.2c0-0.4-0.3-0.6-0.9-0.6C73.2,46.4,71.7,46.2,70.3,45.9z M72.3,27.1c0,0.8,0.4,1.2,1,1.2s0.9-0.4,0.9-1.2
							v-6.5c0-0.8-0.4-1.2-0.9-1.2s-1,0.4-1,1.1V27.1z M108.1,46.4c-0.3,0-0.5-0.3-0.5-0.6V11.2c0-0.2,0.2-0.4,0.4-0.4l0,0h7.4
							c0.4,0,0.9,2.5,1.1,2.5c0.1,0,0.2-0.1,0.4-0.4c1-1.5,2.8-2.4,4.6-2.2c3.3,0,5.9,2.7,5.8,6c0,0.1,0,0.2,0,0.3v29.2
							c0,0.2-0.1,0.3-0.3,0.3l0,0h-8c-0.2,0-0.4-0.2-0.4-0.4l0,0V21.7c0-0.9-0.5-1.2-0.9-1.2s-1,0.3-1,1.2v24.4
							c0,0.2-0.1,0.4-0.4,0.4L108.1,46.4z M130.3,21.1c0-5.2,3.6-10.3,9.9-10.3s10.1,5.5,10.1,10.9c0,2.8,0,3.2-0.7,3.3l-7.8,0.4
							c-0.4,0-0.7-0.3-0.7-0.6c0,0,0,0,0-0.1v-4.4c0.1-0.6-0.4-1.1-1-1.2c-0.6,0.1-1,0.6-0.9,1.2V36c0,0.6,0.4,1.1,1,1.2
							c0.6-0.1,1-0.6,0.9-1.2v-3.8c0-0.3,0.2-0.6,0.6-0.6h0.1l7.9,0.4c0.4,0,0.7,0.3,0.7,0.7c0,4.1,0,13.7-10.4,13.7
							c-5.7,0-9.6-4.5-9.6-11.3L130.3,21.1z M150.5,11.2c0-0.2,0.1-0.4,0.3-0.4h8.2c0.2,0,0.5,0.2,0.5,0.4l1.3,8.9
							c0.1,0.2,0.1,0.5,0.2,0.5s0.2-0.2,0.2-0.5l1.7-9c0.1-0.1,0.1-0.3,0.4-0.3h7.8c0.2,0,0.4,0.2,0.4,0.2l-8.4,43.9
							c0,0.3-0.3,0.5-0.5,0.5H155c-0.2,0-0.4-0.2-0.4-0.4v-0.1l2.7-15c0.1-0.3,0.1-0.6,0-0.9L150.5,11.2z M85.3,11.4
							c0-0.4,0.2-0.6,0.5-0.6h7.5c0.2,0,0.5,0.2,0.5,0.4v0.1V34c0,0.9,0.5,1.2,1,1.2s0.9-0.3,0.9-1.2V11.3c0-0.2,0.1-0.4,0.4-0.5
							l0,0h7.7c0.3,0,0.5,0.2,0.5,0.4V46c0,0.2-0.2,0.4-0.4,0.4c0,0,0,0-0.1,0h-7.1c-0.4,0-0.7-2-1-2c-0.1,0-0.3,0.1-0.6,0.5
							c-1.1,1.1-2.6,1.7-4.2,1.6c-3.2-0.1-5.7-2.8-5.6-6.1c0-0.1,0-0.1,0-0.2C85.3,40.2,85.3,11.4,85.3,11.4z"/>
					</defs>
					<clipPath id="SVGID_00000088821732946274781860000001743896126309939858_">
						<use xlink:href="#SVGID_1_"  style="overflow:visible;"/>
					</clipPath>
					<g style="clip-path:url(#SVGID_00000088821732946274781860000001743896126309939858_);">
						<rect x="-3" y="-0.8" class="st3" width="188.2" height="188.2"/>
						<line class="st3" x1="-3" y1="180.1" x2="185.2" y2="180.1"/>
						<line class="st3" x1="-3" y1="172.9" x2="185.2" y2="172.9"/>
						<line class="st3" x1="-3" y1="165.6" x2="185.2" y2="165.6"/>
						<line class="st3" x1="-3" y1="158.4" x2="185.2" y2="158.4"/>
						<line class="st3" x1="-3" y1="151.1" x2="185.2" y2="151.1"/>
						<line class="st3" x1="-3" y1="143.9" x2="185.2" y2="143.9"/>
						<line class="st3" x1="-3" y1="136.7" x2="185.2" y2="136.7"/>
						<line class="st3" x1="-3" y1="129.4" x2="185.2" y2="129.4"/>
						<line class="st3" x1="-3" y1="122.2" x2="185.2" y2="122.2"/>
						<line class="st3" x1="-3" y1="115" x2="185.2" y2="115"/>
						<line class="st3" x1="-3" y1="107.7" x2="185.2" y2="107.7"/>
						<line class="st3" x1="-3" y1="100.5" x2="185.2" y2="100.5"/>
						<line class="st3" x1="-3" y1="93.2" x2="185.2" y2="93.2"/>
						<line class="st3" x1="-3" y1="86" x2="185.2" y2="86"/>
						<line class="st3" x1="-3" y1="78.8" x2="185.2" y2="78.8"/>
						<line class="st3" x1="-3" y1="71.5" x2="185.2" y2="71.5"/>
						<line class="st3" x1="-3" y1="64.3" x2="185.2" y2="64.3"/>
						<line class="st3" x1="-3" y1="57" x2="185.2" y2="57"/>
						<line class="st3" x1="-3" y1="49.8" x2="185.2" y2="49.8"/>
						<line class="st3" x1="-3" y1="42.6" x2="185.2" y2="42.6"/>
						<line class="st3" x1="-3" y1="35.4" x2="185.2" y2="35.4"/>
						<line class="st3" x1="-3" y1="28.1" x2="185.2" y2="28.1"/>
						<line class="st3" x1="-3" y1="20.9" x2="185.2" y2="20.9"/>
						<line class="st3" x1="-3" y1="13.6" x2="185.2" y2="13.6"/>
						<line class="st3" x1="-3" y1="6.4" x2="185.2" y2="6.4"/>
						<line class="st3" x1="178" y1="-0.8" x2="178" y2="187.3"/>
						<line class="st3" x1="170.7" y1="-0.8" x2="170.7" y2="187.3"/>
						<line class="st3" x1="163.5" y1="-0.8" x2="163.5" y2="187.3"/>
						<line class="st3" x1="156.3" y1="-0.8" x2="156.3" y2="187.3"/>
						<line class="st3" x1="149" y1="-0.8" x2="149" y2="187.3"/>
						<line class="st3" x1="141.8" y1="-0.8" x2="141.8" y2="187.3"/>
						<line class="st3" x1="134.5" y1="-0.8" x2="134.5" y2="187.3"/>
						<line class="st3" x1="127.3" y1="-0.8" x2="127.3" y2="187.3"/>
						<line class="st3" x1="120.1" y1="-0.8" x2="120.1" y2="187.3"/>
						<line class="st3" x1="112.8" y1="-0.8" x2="112.8" y2="187.3"/>
						<line class="st3" x1="105.6" y1="-0.8" x2="105.6" y2="187.3"/>
						<line class="st3" x1="98.4" y1="-0.8" x2="98.4" y2="187.3"/>
						<line class="st3" x1="91.1" y1="-0.8" x2="91.1" y2="187.3"/>
						<line class="st3" x1="83.9" y1="-0.8" x2="83.9" y2="187.3"/>
						<line class="st3" x1="76.7" y1="-0.8" x2="76.7" y2="187.3"/>
						<line class="st3" x1="69.4" y1="-0.8" x2="69.4" y2="187.3"/>
						<line class="st3" x1="62.2" y1="-0.8" x2="62.2" y2="187.3"/>
						<line class="st3" x1="54.9" y1="-0.8" x2="54.9" y2="187.3"/>
						<line class="st3" x1="47.7" y1="-0.8" x2="47.7" y2="187.3"/>
						<line class="st3" x1="40.4" y1="-0.8" x2="40.4" y2="187.3"/>
						<line class="st3" x1="33.2" y1="-0.8" x2="33.2" y2="187.3"/>
						<line class="st3" x1="26" y1="-0.8" x2="26" y2="187.3"/>
						<line class="st3" x1="18.8" y1="-0.8" x2="18.8" y2="187.3"/>
						<line class="st3" x1="11.5" y1="-0.8" x2="11.5" y2="187.3"/>
						<line class="st3" x1="4.3" y1="-0.8" x2="4.3" y2="187.3"/>
					</g>
				</g>
			</g>
			<path class="st1" d="M1.8,2.8C1.8,2.4,2.1,2,2.5,2h29c0.4,0,0.7,0.3,0.7,0.6l0,0v10.3c0,0.4-0.3,0.8-0.8,0.8H14.2
				c-0.3,0-0.6,0.2-0.6,0.6c0,0,0,0,0,0.1V18c0,0.3,0.2,0.5,0.5,0.5h0.1h7.5c0.3,0,0.6,0.3,0.7,0.6v10.8c0,0.4-0.3,0.7-0.7,0.7l0,0
				h-7.4c-0.3,0-0.6,0.4-0.6,0.8v14.5c0.1,0.4-0.2,0.8-0.6,0.8H13H2.4c-0.4-0.1-0.7-0.4-0.6-0.8C1.8,45.9,1.8,2.8,1.8,2.8z
				 M25.1,25.8c0-5.5,4.1-9.2,10.2-9.2s10.2,3.7,10.2,9.5v11.2c0,5.5-4.1,9.3-10.2,9.3s-10.2-3.8-10.2-9.3
				C25.1,37.3,25.1,25.8,25.1,25.8z M34.4,35.7c0,0.7,0.3,1.2,1,1.2s0.9-0.5,0.9-1.2v-8.5c0-0.6-0.4-1.2-0.9-1.2s-1,0.5-1,1.2V35.7z
				 M48.4,11.3c0-0.3,0.1-0.5,0.4-0.5h8.4c0.4,0,0.8,1.9,1.1,1.9c0.1,0,0.2-0.1,0.4-0.4c0.6-1.4,1.9-1.5,3.7-1.5
				c0.2,0,0.4,0.2,0.4,0.4v8.6c0,0.2-0.1,0.4-0.3,0.4h-0.1c-3,0-4.2,1.6-4.2,6.4v19.3c0,0.3-0.2,0.5-0.5,0.5l0,0H49
				c-0.2,0-0.4-0.2-0.4-0.4l0,0V11.3H48.4z M64.5,19.1c0-4.9,3.6-8.3,8.8-8.3c1.4-0.1,2.9,0.2,4.2,0.9c0.4-0.7,2-2.6,3.3-2.6
				c1.5,0,3,3,3,3.4c0,0.6-2.7,1.6-3,1.9c0.9,1.5,1.3,3.2,1.2,4.9v8.9c0,4.9-3.6,8.3-8.7,8.3c-0.8,0-1.6-0.1-2.4-0.3
				c-0.2,0.3-0.3,0.6-0.4,0.9c0,0.7,0.8,1.1,3.2,1.5c6.4,0.9,9.1,3.2,9.1,8.8c0,5.2-4,7.9-9.1,7.9c-6.7,0-9.6-3.5-9.6-6.8
				c-0.1-1.7,0.6-3.3,1.9-4.3c-1-1.1-1.6-2.6-1.4-4.1c0.1-2.2,1.2-4.3,2.9-5.7c-1.8-1.6-2.9-3.9-3-6.3V19.1z M70.2,46
				c-0.2,0.2-0.4,0.5-0.4,0.8c0,1.6,2.7,1.7,3.2,1.7c1,0,2.4-0.2,2.4-1.2c0-0.4-0.3-0.7-0.9-0.7C73.1,46.5,71.6,46.3,70.2,46z
				 M72.1,27.2c0,0.8,0.4,1.2,1,1.2S74,28,74,27.2v-6.5c0-0.8-0.4-1.2-0.9-1.2s-1,0.4-1,1.1V27.2z M108,46.5c-0.3,0-0.5-0.3-0.5-0.6
				V11.2c0-0.2,0.2-0.4,0.4-0.4l0,0h7.4c0.4,0,0.9,2.5,1.1,2.5c0.1,0,0.2-0.1,0.4-0.4c1-1.5,2.8-2.4,4.6-2.2c3.3,0,5.9,2.7,5.8,6
				c0,0.1,0,0.2,0,0.3v29.2c0,0.2-0.1,0.3-0.3,0.3l0,0h-8.2c-0.2,0-0.4-0.2-0.4-0.4l0,0V21.7c0-0.9-0.5-1.2-0.9-1.2s-1,0.3-1,1.2
				v24.4c0,0.2-0.1,0.4-0.4,0.4H108z M130.3,21.1c0-5.2,3.6-10.3,9.9-10.3c6.3,0,10.2,5.5,10.2,10.9c0,2.9,0,3.2-0.7,3.3l-7.8,0.4
				c-0.4,0-0.7-0.3-0.7-0.6c0,0,0,0,0-0.1v-4.3c0.1-0.6-0.4-1.1-0.9-1.2c-0.6,0.1-1,0.6-1,1.2v15.8c0,0.6,0.4,1.1,1,1.2
				c0.6-0.1,1-0.6,0.9-1.2v-3.8c0-0.3,0.2-0.6,0.6-0.6h0.1l7.9,0.4c0.4,0,0.7,0.3,0.6,0.7c0,4.1,0,13.7-10.4,13.7
				c-5.7,0-9.6-4.5-9.6-11.4L130.3,21.1z M150.6,11.2c0-0.2,0.1-0.4,0.3-0.4h8.2c0.2,0,0.5,0.2,0.5,0.4l1.3,8.9
				c0.1,0.2,0.1,0.5,0.2,0.5c0.1,0,0.2-0.2,0.2-0.5l1.7-8.9c0.1-0.1,0.1-0.3,0.4-0.3h7.8c0.2,0,0.4,0.2,0.4,0.2L163.2,55
				c0,0.3-0.3,0.5-0.5,0.5h-7.6c-0.2,0-0.4-0.2-0.4-0.4V55l2.8-15c0.1-0.3,0.1-0.6,0-0.9L150.6,11.2z M85.3,11.4
				c0-0.4,0.2-0.6,0.5-0.6h7.5c0.2,0,0.5,0.2,0.5,0.4c0,0,0,0,0,0.1V34c0,0.9,0.5,1.2,1,1.2c0.4,0,1-0.3,1-1.2V11.3
				c0-0.2,0.1-0.4,0.4-0.5l0,0h7.7c0.3,0,0.5,0.2,0.5,0.4V46c0,0.2-0.2,0.4-0.4,0.4l0,0h-7c-0.4,0-0.7-2.1-1-2.1
				c-0.1,0-0.3,0.1-0.7,0.5c-1.1,1.1-2.6,1.7-4.2,1.6c-3.2-0.1-5.7-2.8-5.6-6c0-0.1,0-0.1,0-0.2V11.4H85.3z"/>
		</g>
	</g>
</g>
</svg>
